# Blender v3.0.1 OBJ File: 'Avatar.blend'
# www.blender.org
mtllib LeftArmUp.mtl
o Right_Arm_Right_Arm_Right_Arm_Cube_Left_Arm_Cube.003
v -1.050000 2.973300 -0.447947
v -1.050001 2.998176 1.451890
v -1.950000 2.998178 1.451890
v -1.950000 2.973295 -0.447947
v -1.975002 3.948214 -0.460715
v -1.975000 3.973094 1.439122
v -1.950000 3.998092 1.438795
v -1.950002 3.973212 -0.461042
v -1.025000 3.973094 1.439122
v -1.025000 3.948216 -0.460715
v -1.050000 3.973214 -0.461042
v -1.050000 3.998092 1.438795
v -2.000000 3.023291 -0.448601
v -2.000000 3.048173 1.451236
v -2.000000 3.948097 1.439450
v -2.000002 3.923216 -0.460387
v -1.000000 3.923218 -0.460387
v -1.000000 3.948097 1.439450
v -1.000000 3.048172 1.451236
v -1.000000 3.023295 -0.448602
v -1.025001 3.023174 1.451563
v -1.024998 2.998295 -0.448274
v -1.037215 3.935775 -0.477827
v -1.055177 3.942711 -0.485645
v -1.944823 3.003143 -0.473340
v -1.055176 3.003145 -0.473340
v -1.055178 3.028678 1.476493
v -1.944824 3.028681 1.476493
v -1.969824 3.917712 -0.485317
v -1.969822 3.028141 -0.473667
v -1.969824 3.053678 1.476166
v -1.969823 3.943248 1.464515
v -1.030176 3.028142 -0.473667
v -1.030177 3.917713 -0.485317
v -1.944824 3.942710 -0.485645
v -1.975002 3.023176 1.451563
v -1.975000 2.998293 -0.448274
v -1.945341 3.967728 1.464195
v -1.055177 3.968245 1.464188
v -1.030177 3.943247 1.464515
v -1.030178 3.053676 1.476166
v -1.060355 3.912208 -0.510247
v -1.939646 3.912207 -0.510247
v -1.060354 3.032992 -0.498733
v -1.939645 3.032991 -0.498733
v -1.037214 3.010283 -0.465706
v -1.962785 3.010282 -0.465706
v -1.962786 3.935774 -0.477827
v -1.962785 3.961107 1.456555
v -1.939646 3.938398 1.489581
v -1.060355 3.938397 1.489581
v -1.939646 3.059182 1.501096
v -1.060355 3.059181 1.501096
v -1.962787 3.035616 1.468675
v -1.037216 3.035615 1.468675
v -1.037214 3.961107 1.456555
vt 0.150390 0.154297
vt 0.248047 0.367188
vt 0.150390 0.367188
vt 0.371094 0.154297
vt 0.376953 0.367188
vt 0.371094 0.367188
vt 0.480469 0.367188
vt 0.474609 0.154297
vt 0.480469 0.154297
vt 0.376953 0.154297
vt 0.474609 0.367188
vt 0.037110 0.154297
vt 0.134772 0.367188
vt 0.037110 0.367188
vt 0.263672 0.154297
vt 0.361328 0.367188
vt 0.263672 0.367188
vt 0.367188 0.367188
vt 0.361328 0.154297
vt 0.367188 0.154297
vt 0.480469 0.373047
vt 0.474609 0.373047
vt 0.248047 0.373047
vt 0.150390 0.148437
vt 0.248047 0.154297
vt 0.037110 0.373047
vt 0.134772 0.373047
vt 0.037110 0.148437
vt 0.134772 0.154297
vt 0.263672 0.373047
vt 0.361328 0.373047
vt 0.376953 0.373047
vt 0.253906 0.367188
vt 0.253906 0.154297
vt 0.257813 0.154297
vt 0.140625 0.367188
vt 0.144531 0.154297
vt 0.031250 0.154297
vt 0.474609 0.148437
vt 0.361328 0.148437
vt 0.376953 0.382812
vt 0.474609 0.376953
vt 0.474609 0.382812
vt 0.474609 0.480469
vt 0.480469 0.382812
vt 0.480454 0.480469
vt 0.376953 0.480469
vt 0.371094 0.382812
vt 0.376953 0.486328
vt 0.257813 0.373047
vt 0.257813 0.367188
vt 0.480469 0.376953
vt 0.367188 0.373047
vt 0.144531 0.373047
vt 0.144531 0.367188
vt 0.474609 0.486328
vt 0.480469 0.486328
vt 0.253906 0.373047
vt 0.031250 0.373047
vt 0.031250 0.367188
vt 0.371109 0.480469
vt 0.371094 0.486328
vt 0.140625 0.373047
vt 0.371094 0.373047
vt 0.376953 0.376953
vt 0.371094 0.376953
vt 0.376953 0.148438
vt 0.371094 0.154297
vt 0.376953 0.154297
vt 0.376953 0.138672
vt 0.474609 0.144531
vt 0.376953 0.144531
vt 0.371108 0.041015
vt 0.376953 0.041015
vt 0.474609 0.041015
vt 0.480469 0.138672
vt 0.474609 0.138672
vt 0.474609 0.035156
vt 0.361329 0.148438
vt 0.367188 0.154297
vt 0.367188 0.148438
vt 0.371094 0.138672
vt 0.371094 0.144531
vt 0.263672 0.148438
vt 0.257813 0.154297
vt 0.263672 0.154297
vt 0.248047 0.148438
vt 0.253906 0.154297
vt 0.253906 0.148438
vt 0.376953 0.035156
vt 0.371094 0.035156
vt 0.150391 0.148438
vt 0.144531 0.154297
vt 0.150391 0.154297
vt 0.134766 0.148438
vt 0.140625 0.154297
vt 0.140625 0.148438
vt 0.480453 0.041015
vt 0.480469 0.035157
vt 0.037110 0.148438
vt 0.031250 0.154297
vt 0.037110 0.154297
vt 0.474610 0.148438
vt 0.480469 0.154297
vt 0.480469 0.148438
vt 0.480469 0.144531
vt 0.150390 0.373047
vt 0.248047 0.148437
vt 0.134772 0.148437
vt 0.140625 0.154297
vt 0.376953 0.148437
vt 0.263672 0.148437
vt 0.371094 0.148438
vt 0.361329 0.154297
vt 0.257813 0.148438
vt 0.248047 0.154297
vt 0.144531 0.148438
vt 0.134766 0.154297
vt 0.031250 0.148438
vt 0.474609 0.154297
vn 0.5721 -0.8176 -0.0649
vn -0.0204 -0.9998 0.0052
vn 0.0248 -0.9997 0.0001
vn -0.8761 0.3398 0.3421
vn -0.0236 0.9994 -0.0247
vn -0.7071 0.7070 -0.0096
vn 0.8761 0.3308 -0.3509
vn 0.0232 0.9997 -0.0023
vn 0.7071 0.7071 -0.0090
vn 0.1222 0.9756 0.1826
vn -0.0372 0.6964 -0.7167
vn -0.8167 -0.5730 -0.0681
vn -0.9997 0.0219 -0.0101
vn -0.9997 -0.0238 -0.0114
vn 0.8174 0.5703 -0.0808
vn 0.9997 -0.0221 -0.0095
vn 0.9997 0.0234 -0.0120
vn 0.3352 -0.8806 -0.3350
vn 0.6940 -0.7152 0.0827
vn 0.7071 -0.7070 0.0096
vn 0.5000 0.4907 -0.7136
vn 0.0060 0.6272 -0.7789
vn -0.0058 -0.6563 -0.7545
vn 0.0058 -0.6363 0.7714
vn 0.0341 -0.6985 0.7148
vn -0.3695 -0.2510 -0.8947
vn -0.6373 -0.0041 -0.7706
vn -0.6464 0.0043 0.7630
vn -0.7078 -0.0248 0.7060
vn 0.3678 0.2273 -0.9017
vn 0.6371 -0.0186 -0.7706
vn -0.2393 0.3577 -0.9027
vn -0.8761 -0.3399 -0.3421
vn -0.7071 -0.7070 0.0096
vn 0.0039 0.6477 0.7619
vn 0.6373 0.0042 0.7706
vn -0.5825 0.0453 -0.8115
vn 0.0272 0.0141 -0.9995
vn 0.0365 -0.0264 -0.9990
vn -0.0585 -0.5905 -0.8049
vn 0.5000 -0.5092 -0.7005
vn 0.3913 -0.7186 -0.5748
vn -0.5000 -0.5092 -0.7005
vn -0.5000 0.4907 -0.7136
vn -0.5000 0.5092 0.7005
vn -0.3156 0.7620 0.5655
vn -0.0159 0.0530 0.9985
vn -0.0243 -0.0112 0.9996
vn 0.0585 -0.5693 0.8201
vn 0.3858 0.1960 0.9015
vn 0.4101 0.6008 0.6862
vn -0.7110 0.3989 0.5790
vn -0.5000 -0.4907 0.7136
vn -0.3913 -0.7033 0.5936
vn 0.5000 -0.4907 0.7136
vn 0.5000 0.5092 0.7005
usemtl Char
s 1
f 2/1/1 4/2/2 1/3/3
f 6/4/4 8/5/5 5/6/6
f 10/7/7 12/8/8 9/9/9
f 7/10/10 11/11/11 8/5/5
f 14/12/12 16/13/13 13/14/14
f 18/15/15 20/16/16 17/17/17
f 22/18/18 19/19/19 21/20/20
f 11/11/11 23/21/21 24/22/22
f 25/23/23 1/3/3 4/2/2
f 27/24/24 3/25/25 2/1/1
f 30/26/26 16/13/13 29/27/27
f 31/28/28 15/29/29 14/12/12
f 34/30/30 20/16/16 33/31/31
f 35/32/32 11/11/11 24/22/22
f 37/33/33 3/25/25 36/34/34
f 17/17/17 9/35/9 18/15/15
f 15/29/29 5/36/6 16/13/13
f 1/3/3 21/37/20 2/1/1
f 13/14/14 36/38/34 14/12/12
f 7/10/10 39/39/35 12/8/8
f 18/15/15 41/40/36 19/19/19
f 43/41/37 24/42/22 42/43/38
f 44/44/39 34/45/30 33/46/31
f 45/47/40 29/48/27 43/41/37
f 44/44/39 25/49/23 45/47/40
f 43/41/37 44/44/39 45/47/40
f 17/17/17 23/50/21 10/51/7
f 34/45/30 24/42/22 23/52/21
f 20/16/16 46/53/41 33/31/31
f 1/3/3 46/54/41 22/55/18
f 26/56/42 33/46/31 46/57/41
f 4/2/2 47/58/43 25/23/23
f 13/14/14 47/59/43 37/60/33
f 30/61/26 25/49/23 47/62/43
f 16/13/13 48/63/44 29/27/27
f 8/5/5 48/64/44 5/6/6
f 35/65/32 29/48/27 48/66/44
f 7/67/10 49/68/45 38/69/46
f 50/70/47 39/71/35 38/72/46
f 50/70/47 31/73/28 52/74/48
f 53/75/49 40/76/50 51/77/51
f 52/74/48 27/78/24 53/75/49
f 51/77/51 52/74/48 53/75/49
f 15/79/29 49/80/45 6/81/4
f 32/82/52 38/72/46 49/83/45
f 14/84/12 54/85/53 31/86/28
f 3/87/25 54/88/53 36/89/34
f 28/90/54 31/73/28 54/91/53
f 2/92/1 55/93/55 27/94/24
f 19/95/19 55/96/55 21/97/20
f 41/98/36 27/78/24 55/99/55
f 18/100/15 56/101/56 40/102/50
f 12/103/8 56/104/56 9/105/9
f 39/71/35 40/76/50 56/106/56
f 2/1/1 3/25/25 4/2/2
f 6/4/4 7/10/10 8/5/5
f 10/7/7 11/11/11 12/8/8
f 7/10/10 12/8/8 11/11/11
f 14/12/12 15/29/29 16/13/13
f 18/15/15 19/19/19 20/16/16
f 22/18/18 20/16/16 19/19/19
f 11/11/11 10/7/7 23/21/21
f 25/23/23 26/107/42 1/3/3
f 27/24/24 28/108/54 3/25/25
f 30/26/26 13/14/14 16/13/13
f 31/28/28 32/109/52 15/29/29
f 34/30/30 17/17/17 20/16/16
f 35/32/32 8/5/5 11/11/11
f 37/33/33 4/2/2 3/25/25
f 17/17/17 10/51/7 9/35/9
f 15/29/29 6/110/4 5/36/6
f 1/3/3 22/55/18 21/37/20
f 13/14/14 37/60/33 36/38/34
f 7/10/10 38/111/46 39/39/35
f 18/15/15 40/112/50 41/40/36
f 43/41/37 35/65/32 24/42/22
f 44/44/39 42/43/38 34/45/30
f 45/47/40 30/61/26 29/48/27
f 44/44/39 26/56/42 25/49/23
f 43/41/37 42/43/38 44/44/39
f 17/17/17 34/30/30 23/50/21
f 34/45/30 42/43/38 24/42/22
f 20/16/16 22/18/18 46/53/41
f 1/3/3 26/107/42 46/54/41
f 26/56/42 44/44/39 33/46/31
f 4/2/2 37/33/33 47/58/43
f 13/14/14 30/26/26 47/59/43
f 30/61/26 45/47/40 25/49/23
f 16/13/13 5/36/6 48/63/44
f 8/5/5 35/32/32 48/64/44
f 35/65/32 43/41/37 29/48/27
f 7/67/10 6/113/4 49/68/45
f 50/70/47 51/77/51 39/71/35
f 50/70/47 32/82/52 31/73/28
f 53/75/49 41/98/36 40/76/50
f 52/74/48 28/90/54 27/78/24
f 51/77/51 50/70/47 52/74/48
f 15/79/29 32/114/52 49/80/45
f 32/82/52 50/70/47 38/72/46
f 14/84/12 36/115/34 54/85/53
f 3/87/25 28/116/54 54/88/53
f 28/90/54 52/74/48 31/73/28
f 2/92/1 21/117/20 55/93/55
f 19/95/19 41/118/36 55/96/55
f 41/98/36 53/75/49 27/78/24
f 18/100/15 9/119/9 56/101/56
f 12/103/8 39/120/35 56/104/56
f 39/71/35 51/77/51 40/76/50
